0
SECTION
2
HEADER
9
$ACADVER
1
AC1009
9
$EXTMIN
10
0
20
0
30
0
9
$EXTMAX
10
437
20
88.1
30
0
0
ENDSEC
0
SECTION
2
TABLES
0
TABLE
2
LTYPE
70
1
0
LTYPE
2
CONTINUOUS
70
64
3
Solid line
72
65
73
0
40
0
0
ENDTAB
0
TABLE
2
LAYER
70
3
0
LAYER
2
KONTUR
70
0
62
7
6
CONTINUOUS
0
LAYER
2
AUSSCHNITTE
70
0
62
1
6
CONTINUOUS
0
LAYER
2
DRUCK
70
0
62
5
6
CONTINUOUS
0
ENDTAB
0
ENDSEC
0
SECTION
2
ENTITIES
0
POLYLINE
8
KONTUR
66
1
70
1
0
VERTEX
8
KONTUR
10
2
20
0
30
0
0
VERTEX
8
KONTUR
10
435
20
0
30
0
42
0.414
0
VERTEX
8
KONTUR
10
437
20
2
30
0
0
VERTEX
8
KONTUR
10
437
20
86.1
30
0
42
0.414
0
VERTEX
8
KONTUR
10
435
20
88.1
30
0
0
VERTEX
8
KONTUR
10
2
20
88.1
30
0
42
0.414
0
VERTEX
8
KONTUR
10
0
20
86.1
30
0
0
VERTEX
8
KONTUR
10
0
20
2
30
0
42
0.414
0
SEQEND
8
KONTUR
0
CIRCLE
8
AUSSCHNITTE
10
5
20
83.2
30
0
40
2.65
0
CIRCLE
8
AUSSCHNITTE
10
5
20
4.9
30
0
40
2.65
0
CIRCLE
8
AUSSCHNITTE
10
432
20
83.2
30
0
40
2.65
0
CIRCLE
8
AUSSCHNITTE
10
432
20
4.9
30
0
40
2.65
0
CIRCLE
8
AUSSCHNITTE
10
40
20
30
30
0
40
6
0
ENDSEC
0
EOF
