0
SECTION
2
HEADER
9
$ACADVER
1
AC1009
9
$EXTMIN
10
0
20
0
30
0
9
$EXTMAX
10
416
20
249.5
30
0
0
ENDSEC
0
SECTION
2
TABLES
0
TABLE
2
LTYPE
70
1
0
LTYPE
2
CONTINUOUS
70
64
3
Solid line
72
65
73
0
40
0
0
ENDTAB
0
TABLE
2
LAYER
70
3
0
LAYER
2
KONTUR
70
0
62
7
6
CONTINUOUS
0
LAYER
2
AUSSCHNITTE
70
0
62
1
6
CONTINUOUS
0
LAYER
2
DRUCK
70
0
62
5
6
CONTINUOUS
0
ENDTAB
0
ENDSEC
0
SECTION
2
ENTITIES
0
POLYLINE
8
KONTUR
66
1
70
1
0
VERTEX
8
KONTUR
10
1.5
20
0
30
0
0
VERTEX
8
KONTUR
10
414.5
20
0
30
0
42
0.414
0
VERTEX
8
KONTUR
10
416
20
1.5
30
0
0
VERTEX
8
KONTUR
10
416
20
248
30
0
42
0.414
0
VERTEX
8
KONTUR
10
414.5
20
249.5
30
0
0
VERTEX
8
KONTUR
10
1.5
20
249.5
30
0
42
0.414
0
VERTEX
8
KONTUR
10
0
20
248
30
0
0
VERTEX
8
KONTUR
10
0
20
1.5
30
0
42
0.414
0
SEQEND
8
KONTUR
0
CIRCLE
8
AUSSCHNITTE
10
208
20
244
30
0
40
1.55
0
CIRCLE
8
AUSSCHNITTE
10
208
20
5
30
0
40
1.55
0
ENDSEC
0
EOF
